<?xml version="1.0" ?><svg data-name="Layer 7" id="Layer_7" viewBox="0 0 100 100" xmlns="http://www.w3.org/2000/svg"><title/><path d="M75.5,44.25a25.5,25.5,0,0,0-51,0A25.27,25.27,0,0,0,43.87,68.77L43,74H36v7H64V74H57l-.91-5.23A25.27,25.27,0,0,0,75.5,44.25Zm-49,0A23.5,23.5,0,1,1,55.8,67l-.88-5.24A20.09,20.09,0,0,0,63,57h.43c2.32,0,4.05-.8,4.91-2.27s.67-3.56-.64-5.69A18.21,18.21,0,0,0,54.77,26.66v0c-1.15-2.29-2.83-3.77-4.75-3.73C47.21,23,45.09,27,45.09,27,38.13,28.63,32,36.22,32,44.25a18.26,18.26,0,0,0,.56,4.49l-.14.2c-1.36,2.15-1.6,4.2-.7,5.76S34.27,57,36.6,57h.56a18.18,18.18,0,0,0,7.92,4.71L44.2,67A23.54,23.54,0,0,1,26.5,44.25Zm19.9-2a4.12,4.12,0,0,0-.36,1l-7.71.3-.21.12a18.7,18.7,0,0,0-4,3,16.15,16.15,0,0,1,10.19-17.6A18.58,18.58,0,0,0,43.7,34,14.58,14.58,0,0,0,46.4,42.28ZM49,50c.5-1,.87-1.28,1.14-1.84a4.23,4.23,0,0,0,.48,0l2,11.92c-.81.09-1.82.19-2.61.19A23.29,23.29,0,0,1,47.38,60L49,50Zm1.12-8.06A2.18,2.18,0,1,1,48,44.12,2.19,2.19,0,0,1,50.14,41.94Zm3,9,2.23,3.56.21.12a18.54,18.54,0,0,0,4.84,2,17.49,17.49,0,0,1-5.8,3.18ZM63.06,55a14.48,14.48,0,0,1-6.28-2L53.06,47.1a4.17,4.17,0,0,0,1.26-3c0-.08,0-.16,0-.24a12.46,12.46,0,0,1,6.6,1.58,14.63,14.63,0,0,1,5,4.59c.92,1.47,1.16,2.82.65,3.7S64.8,55.09,63.06,55Zm3-8a18.49,18.49,0,0,0-4.18-3.28,14.63,14.63,0,0,0-8.23-1.82,5,5,0,0,0-1-1L56,34.28V34a18.72,18.72,0,0,0-.5-5A16.72,16.72,0,0,1,66.08,47ZM54.32,33.79,51,40a4.11,4.11,0,0,0-3.28.66,12.43,12.43,0,0,1-2-6.66c0-5.36,2.27-9.09,4.31-9.09S54.25,28.56,54.32,33.79ZM34.07,50a14.49,14.49,0,0,1,4.84-4.46l7.23-.28a4.17,4.17,0,0,0,2,2.52,12.42,12.42,0,0,1-4.75,5.11A14.63,14.63,0,0,1,36.94,55c-1.74.06-3-.4-3.53-1.28S33.14,51.48,34.07,50Zm10.36,4.62a13.23,13.23,0,0,0,2.09-1.5l-1.1,6.6a16.14,16.14,0,0,1-5.75-3.14A18.61,18.61,0,0,0,44.43,54.63ZM47,62.08a25.33,25.33,0,0,0,3,.23,29.19,29.19,0,0,0,2.94-.2l.89,5.31a23.28,23.28,0,0,1-7.69,0ZM62,76v3H38V76Zm-7-2H45l.85-4.83a25.56,25.56,0,0,0,4.17.46,25.59,25.59,0,0,0,4.17-.52Z"/></svg>